<svg xmlns="http://www.w3.org/2000/svg" xmlns:xlink="http://www.w3.org/1999/xlink" width="58" height="42" version="1.1" viewBox="0 0 58 42"><title>DeviceIcon</title><desc>Created with Sketch.</desc><g id="Device-Type-logo--QS" fill="none" fill-rule="evenodd" stroke="none" stroke-width="1"><g id="Group-4" transform="translate(-23.000000, -31.000000)"><g id="DeviceIcon" transform="translate(23.000000, 31.000000)"><path id="Shape-Copy" fill="#000" d="M40.8093712,28.875 L39.3995483,28.875 C39.4106155,28.6375469 39.4356061,28.4043594 39.4356061,28.164418 C39.4356061,19.9189648 32.7224356,13.234375 24.4412879,13.234375 C24.2003078,13.234375 23.9653968,13.2585469 23.7272727,13.2706328 L23.7272727,11.8661758 C24.0828523,11.8437812 24.4366468,11.8125 24.7982955,11.8125 C33.6710047,11.8125 40.8636364,18.9744844 40.8636364,27.8093047 C40.8636364,28.1693945 40.8329337,28.5216641 40.8093712,28.875 L40.8093712,28.875 Z M35.5085227,28.1422123 C35.5085227,28.3896519 35.487538,28.6315928 35.4709712,28.875 L34.0171367,28.875 C34.0215545,28.7525632 34.0355443,28.6319594 34.0355443,28.5087894 C34.0355443,23.0420244 29.5853162,18.6104733 24.0954253,18.6104733 C23.9713579,18.6104733 23.8506038,18.6240366 23.7272727,18.6295353 L23.7272727,17.1819221 C23.971726,17.1654261 24.2150749,17.1445312 24.4635778,17.1445312 C30.5634976,17.1445312 35.5085227,22.0683955 35.5085227,28.1422123 L35.5085227,28.1422123 Z M23.7272727,23.5429688 C26.6846342,23.5429688 29.0823864,25.9298684 29.0823864,28.875 L27.743608,28.875 C27.743608,26.6664013 25.9452939,24.8760599 23.7272727,24.8760599 L23.7272727,23.5429688 L23.7272727,23.5429688 Z"/><g id="Group" stroke="#000" stroke-width="1.32"><rect id="Rectangle" width="48.771" height="32.805" x="4.615" y="4.598" rx="2.64"/><rect id="Rectangle-Copy" width="56.68" height="40.68" x=".66" y=".66" rx="2.64"/></g><path id="Path-2" stroke="#000" stroke-width="1.32" d="M44.8181818,7.875 L48.7709091,7.875 C49.499925,7.875 50.0909091,8.46598413 50.0909091,9.195 L50.0909091,13.125"/></g></g></g></svg>